<?xml version="1.0" standalone="no"?>
<!DOCTYPE svg PUBLIC "-//W3C//DTD SVG 20010904//EN"
 "http://www.w3.org/TR/2001/REC-SVG-20010904/DTD/svg10.dtd">
<svg version="1.0" xmlns="http://www.w3.org/2000/svg"
 width="877.000000pt" height="877.000000pt" viewBox="0 0 877.000000 877.000000"
 preserveAspectRatio="xMidYMid meet">
<metadata>
Created by potrace 1.14, written by Peter Selinger 2001-2017
</metadata>
<g transform="translate(0.000000,877.000000) scale(0.100000,-0.100000)"
fill="#000000" stroke="none">
<path d="M4178 8765 c-2 -1 -56 -6 -120 -9 -65 -4 -130 -9 -144 -12 -14 -3
-45 -7 -68 -9 -46 -4 -78 -9 -216 -31 -52 -9 -97 -17 -100 -19 -3 -2 -24 -6
-46 -9 -50 -8 -255 -59 -349 -88 -38 -12 -74 -22 -80 -24 -5 -1 -55 -18 -110
-37 -338 -117 -668 -279 -965 -475 -107 -71 -259 -178 -270 -191 -3 -3 -30
-25 -60 -48 -30 -23 -64 -50 -75 -60 -12 -10 -54 -47 -95 -83 -91 -79 -317
-304 -385 -383 -28 -33 -54 -64 -60 -71 -301 -348 -570 -802 -748 -1261 -29
-74 -93 -260 -104 -300 -1 -5 -18 -68 -37 -139 -19 -70 -37 -140 -40 -155 -3
-14 -12 -57 -20 -96 -17 -80 -23 -109 -32 -174 -4 -25 -8 -53 -10 -63 -1 -9
-5 -38 -9 -65 -4 -26 -8 -58 -10 -69 -20 -134 -28 -709 -12 -879 15 -161 17
-181 22 -210 2 -16 7 -48 11 -70 43 -293 126 -618 229 -891 113 -299 309 -679
473 -914 66 -94 146 -204 152 -210 3 -3 27 -32 52 -65 25 -33 54 -69 65 -80
10 -11 45 -52 77 -90 201 -235 610 -594 845 -740 9 -6 48 -31 86 -56 281 -185
775 -416 1035 -484 8 -3 53 -16 100 -30 100 -30 326 -85 411 -99 19 -3 45 -8
58 -11 14 -2 45 -7 70 -10 25 -3 55 -7 66 -9 20 -4 89 -13 155 -21 113 -13
283 -19 485 -19 214 1 275 4 430 19 61 6 74 8 155 20 25 4 56 8 70 10 24 3
109 18 120 20 3 1 25 5 50 9 25 4 108 24 185 43 77 19 145 36 150 37 6 2 30 9
55 16 25 7 51 14 57 16 7 1 32 9 55 17 24 9 84 30 133 48 50 17 104 37 120 44
17 7 55 23 85 35 243 99 522 250 765 414 82 55 285 206 311 231 6 5 30 26 54
45 112 89 363 336 470 459 30 35 69 80 86 100 104 122 300 398 385 544 19 33
42 73 53 90 82 139 238 474 301 647 70 194 169 551 189 680 3 19 8 46 10 60
14 75 26 151 31 200 3 30 8 62 10 70 27 105 27 844 0 1000 -4 29 -15 110 -20
157 -1 18 -6 50 -10 70 -4 21 -9 49 -11 63 -37 218 -133 557 -228 803 -285
735 -767 1380 -1411 1885 -5 4 -26 19 -45 32 -19 14 -37 28 -40 31 -10 13
-228 159 -317 213 -304 183 -626 328 -978 439 -94 30 -383 103 -439 112 -21 3
-41 7 -45 9 -3 2 -28 7 -56 10 -27 4 -77 11 -110 16 -116 17 -150 22 -300 36
-66 6 -541 14 -547 9z"/>
</g>
</svg>
